# AST/ASF file generated using VICON BodyLanguage
# -----------------------------------------------
:version 1.10
:name VICON
:units
  mass 1.0
  length 0.45
  angle deg
:documentation
   .ast/.asf automatically generated from VICON data using
   VICON BodyBuilder and BodyLanguage model FoxedUp or BRILLIANT.MOD
:root
   order TX TY TZ RX RY RZ
   axis XYZ
   position 0 0 0  
   orientation 0 0 0 
:bonedata
  begin
     id 1 
     name lhipjoint
     direction 0.707368 -0.647095 0.284426 
     length 2.60678 
     axis 0 0 0  XYZ
  end
  begin
     id 2 
     name lfemur
     direction 0.34202 -0.939693 0  
     length 6.63812  
     axis 0 0 20  XYZ
    dof rx ry rz
    limits (-160.0 20.0)
           (-70.0 70.0)
           (-60.0 70.0)
  end
  begin
     id 3 
     name ltibia
     direction 0.34202 -0.939693 0   
     length 7.51178   
     axis 0 0 20   XYZ
    dof rx
    limits (-10.0 170.0)
  end
  begin
     id 4 
     name lfoot
     direction 0.121251 -0.333133 0.935051   
     length 1.83716   
     axis -90 7.62852e-016 20   XYZ
    dof rx rz
    limits (-45.0 90.0)
           (-70.0 20.0)
  end
  begin
     id 5 
     name ltoes
     direction 1.53611e-011 -4.21962e-011 1   
     length 0.916133   
     axis -90 7.62852e-016 20   XYZ
    dof rx
    limits (-90.0 20.0)
  end
  begin
     id 6 
     name rhipjoint
     direction -0.692419 -0.660507 0.290321   
     length 2.55385  
     axis 0 0 0  XYZ 
  end
  begin
     id 7 
     name rfemur
     direction -0.34202 -0.939693 0   
     length 7.29079   
     axis 0 0 -20   XYZ
    dof rx ry rz
    limits (-160.0 20.0)
           (-70.0 70.0)
           (-70.0 60.0)
  end
  begin
     id 8 
     name rtibia
     direction -0.34202 -0.939693 0   
     length 7.47143   
     axis 0 0 -20   XYZ
    dof rx
    limits (-10.0 170.0)
 end
 begin
     id 9 
     name rfoot
     direction -0.119907 -0.329441 0.936532   
     length 1.79439  
     axis -90 -7.62852e-016 -20   XYZ
    dof rx rz
    limits (-45.0 90.0)
           (-20.0 70.0)
  end
  begin
     id 10 
     name rtoes
     direction -1.53571e-011 -4.21961e-011 1   
     length 0.896039   
     axis -90 -7.62852e-016 -20   XYZ
    dof rx
    limits (-90.0 20.0)
  end
  begin
     id 11 
     name lowerback
     direction 0.0367721 0.992912 -0.113016   
     length 1.73542   
     axis 0 0 0   XYZ
    dof rx ry rz
    limits (-20.0 45.0)
           (-30.0 30.0)
           (-30.0 30.0)
  end
  begin
     id 12 
     name upperback
     direction -0.000314626 0.990678 0.136227   
     length 1.7514   
     axis 0 0 0   XYZ
    dof rx ry rz
    limits (-20.0 45.0)
           (-30.0 30.0)
           (-30.0 30.0)
  end
  begin
     id 13 
     name thorax
     direction -0.0226159 0.981151 0.191917   
     length 1.71471   
     axis 0 0 0   XYZ
    dof rx ry rz
    limits (-20.0 45.0)
           (-30.0 30.0)
           (-30.0 30.0)
  end
  begin
     id 14 
     name lowerneck
     direction 0.0219333 0.998071 0.0580739   
     length 1.65882   
     axis 0 0 0   XYZ
    dof rx ry rz
    limits (-20.0 45.0)
           (-30.0 30.0)
           (-30.0 30.0)
  end
  begin
     id 15 
     name upperneck
     direction 0.0384529 0.980058 -0.194957   
     length 1.6612   
     axis 0 0 0   XYZ
    dof rx ry rz
    limits (-20.0 45.0)
           (-30.0 30.0)
           (-30.0 30.0)
  end
  begin
     id 16
     name head
     direction 0.00592123 0.997421 -0.0715234  
     length 1.68077  
     axis 0 0 0   XYZ
    dof rx ry rz
    limits (-20.0 45.0)
           (-30.0 30.0)
           (-30.0 30.0)
  end
  begin
     id 17 
     name lclavicle
     direction 0.904803 0.417826 0.0821728  
     length 3.42227  
     axis 0 0 0   XYZ
    dof ry rz
    limits (-20.0 10.0)
           (0.0 20.0)
  end
  begin
     id 18 
     name lhumerus
     direction 1 -4.48965e-011 -2.68786e-027   
     length 5.11878   
     axis -180 -30 -90   XYZ
    dof rx ry rz
    limits (-60.0 90.0)
           (-90.0 90.0)
           (-90.0 90.0)
  end
  begin
     id 19
     name lradius
     direction 1 -4.48965e-011 2.61168e-028   
     length 3.59971   
     axis -180 -30 -90   XYZ
    dof rx
    limits (-10.0 170.0)
  end
  begin
     id 20
     name lwrist
     direction 1 -4.48965e-011 1.58672e-027   
     length 1.79985   
     axis -1.65735e-015 90 90   XYZ
    dof ry
    limits (-180.0 0.0)
 end
  begin
     id 21 
     name lhand
     direction 1 -4.48942e-011 3.17344e-027   
     length 0.62877   
     axis -2.02492e-015 90 90   XYZ
    dof rx rz
    limits (-90.0 90.0)
           (-45.0 45.0)
  end
  begin
     id 22 
     name lfingers
     direction 1 -4.49011e-011 6.34687e-027   
     length 0.506931   
     axis -4.04985e-015 90 90   XYZ
    dof rx
    limits (0.0 90.0)
  end
  begin
     id 23
     name lthumb
     direction 0.707107 -6.34982e-011 0.707107   
     length 0.727854   
     axis -90 45 2.85299e-015   XYZ
    dof rx rz
    limits (-45.0 45.0)
           (-45.0 45.0)
  end
  begin
     id 24 
     name rclavicle
     direction -0.945647 0.32488 0.0143075   
     length 3.52737  
     axis 0 0 0   XYZ 
    dof ry rz
    limits (-10.0 20.0)
           (-20.0 0.0)
  end
  begin
     id 25 
     name rhumerus
     direction -1 -4.48962e-011 1.92182e-027  
     length 5.4902   
     axis -180 30 90   XYZ
    dof rx ry rz
    limits (-90.0 60.0)
           (-90.0 90.0)
           (-90.0 90.0)
  end
  begin
     id 26 
     name rradius
     direction -1 -4.48967e-011 -5.97193e-028   
     length 3.20659   
     axis -180 30 90   XYZ
    dof rx
    limits (-10.0 170.0)
  end
  begin
     id 27 
     name rwrist
     direction -1 -4.48964e-011 1.58672e-027   
     length 1.6033   
     axis -1.65735e-015 -90 -90   XYZ
    dof ry
    limits (-180.0 0.0)
  end
  begin
     id 28
     name rhand
     direction -1 -4.49006e-011 3.17344e-027   
     length 0.691885   
     axis -2.02492e-015 -90 -90   XYZ
    dof rx rz
    limits (-90.0 90.0)
           (-45.0 45.0)
  end
  begin
     id 29
     name rfingers
     direction -1 -4.48908e-011 6.34687e-027   
     length 0.557815   
     axis -4.04985e-015 -90 -90   XYZ
    dof rx
    limits (0.0 90.0)
  end
  begin
     id 30
     name rthumb
     direction -0.707107 -6.34999e-011 0.707107   
     length 0.800915   
     axis -90 -45 -2.85299e-015   XYZ
    dof rx rz
    limits (-45.0 45.0)
           (-45.0 45.0)
  end
:hierarchy
  begin
    root lhipjoint rhipjoint lowerback
    lhipjoint lfemur
    lfemur ltibia
    ltibia lfoot
    lfoot ltoes
    rhipjoint rfemur
    rfemur rtibia
    rtibia rfoot
    rfoot rtoes
    lowerback upperback
    upperback thorax
    thorax lowerneck lclavicle rclavicle
    lowerneck upperneck
    upperneck head
    lclavicle lhumerus
    lhumerus lradius
    lradius lwrist
    lwrist lhand lthumb
    lhand lfingers
    rclavicle rhumerus
    rhumerus rradius
    rradius rwrist
    rwrist rhand rthumb
    rhand rfingers
  end

#!OML:ASF I:\Actors\actors\Patient Classification 1\Patient 1\Session 1\Subject1.ASF
:FULLY-SPECIFIED
:DEGREES
1
root 0.635275 17.4663 9.27238 9.58862 -2.83542 -9.93397
lowerback 2.53233 1.36578 7.3735
upperback -8.53742 2.52928 1.13031
thorax -10.306 0.682535 -3.18617
lowerneck -9.15279 -11.9531 -6.37432
upperneck 17.1803 -17.4812 9.97892
head 8.29122 -7.93404 2.40036
rclavicle 1.22253e-014 -2.38542e-015
rhumerus -48.4467 -34.9417 -60.6914
rradius 20.1349
rwrist 53.1978
rhand 7.24674 -25.7348
rfingers 7.12502
rthumb 32.5105 -52.8371
lclavicle 1.22253e-014 -2.38542e-015
lhumerus -47.7301 26.3734 64.2804
lradius 17.4031
lwrist -30.3564
lhand -18.3966 -12.3627
lfingers 7.12502
lthumb 7.88753 17.4702
rfemur -3.51816 27.8051 26.4658
rtibia 0.878219
rfoot -12.6755 -24.8835
rtoes 13.9128
lfemur 7.85577 -48.1422 -13.3465
ltibia -4.79706
lfoot -27.7379 56.0164
ltoes 13.8802
2
root 0.633149 17.4609 9.2745 9.75306 -2.82269 -9.9404
lowerback 2.2691 1.34403 7.30688
upperback -8.64015 2.48415 1.23437
thorax -10.2747 0.67055 -3.0251
lowerneck -8.82834 -11.8942 -6.68147
upperneck 17.1759 -17.3735 10.0261
head 8.25435 -7.91167 2.49403
rclavicle -5.66536e-015 -1.66979e-014
rhumerus -48.5491 -34.6111 -60.6313
rradius 20.2159
rwrist 53.1427
rhand 7.37007 -25.8726
rfingers 7.12502
rthumb 32.6279 -52.9506
lclavicle -5.66536e-015 -1.66979e-014
lhumerus -48.0794 26.6492 64.0844
lradius 17.4193
lwrist -30.6106
lhand -18.4117 -12.6055
lfingers 7.12502
lthumb 7.87303 17.2279
rfemur -3.73794 27.7089 26.4033
rtibia 0.855183
rfoot -12.251 -24.933
rtoes 12.1495
lfemur 7.57529 -48.0732 -13.0969
ltibia -4.81723
lfoot -27.5973 56.0043
ltoes 13.7258
3
root 0.631155 17.4556 9.27546 9.92298 -2.81562 -9.97007
lowerback 2.05798 1.32503 7.2722
upperback -8.77179 2.45204 1.3378
thorax -10.3058 0.659228 -2.88599
lowerneck -8.51488 -11.8398 -6.9919
upperneck 17.2372 -17.276 10.0464
head 8.23963 -7.89399 2.57652
rclavicle -4.87022e-015 3.69739e-014
rhumerus -48.6737 -34.2955 -60.5263
rradius 20.2367
rwrist 53.0969
rhand 7.34597 -25.8401
rfingers 7.12502
rthumb 32.6049 -52.9229
lclavicle -4.87022e-015 3.69739e-014
lhumerus -48.4363 26.8416 63.9214
lradius 17.4455
lwrist -30.7271
lhand -18.4075 -12.6513
lfingers 7.12502
lthumb 7.87703 17.182
rfemur -3.98268 27.6119 26.3595
rtibia 0.853886
rfoot -11.8123 -24.9931
rtoes 10.2253
lfemur 7.24055 -47.9176 -12.7688
ltibia -4.83437
lfoot -27.2861 55.9204
ltoes 13.4207
4
root 0.628889 17.4503 9.2766 10.1044 -2.80427 -10.0162
lowerback 1.84592 1.31325 7.27466
upperback -8.91529 2.43198 1.42828
thorax -10.3474 0.649511 -2.78274
lowerneck -8.20385 -11.792 -7.30447
upperneck 17.3379 -17.1922 10.0545
head 8.23855 -7.88271 2.65291
rclavicle 4.07509e-015 -7.95139e-015
rhumerus -48.8083 -34.0007 -60.4223
rradius 20.2435
rwrist 53.034
rhand 7.38804 -25.789
rfingers 7.12502
rthumb 32.645 -52.8634
lclavicle 4.07509e-015 -7.95139e-015
lhumerus -48.7785 26.9575 63.7847
lradius 17.4838
lwrist -30.7659
lhand -18.3859 -12.6396
lfingers 7.12502
lthumb 7.89785 17.1929
rfemur -4.24537 27.5465 26.3227
rtibia 0.86383
rfoot -11.4329 -25.0474
rtoes 8.08603
lfemur 6.91053 -47.855 -12.4314
ltibia -4.84401
lfoot -27.4339 55.8463
ltoes 13.5606
5
root 0.622622 17.4485 9.28121 10.4265 -2.8249 -9.65836
lowerback 1.38775 1.3069 6.78575
upperback -9.07915 2.35295 1.40717
thorax -10.2721 0.65084 -2.51414
lowerneck -7.90888 -11.7209 -7.58757
upperneck 17.4308 -17.094 10.1281
head 8.23975 -7.85712 2.74714
rclavicle -1.98785e-016 -2.78299e-014
rhumerus -48.8161 -33.7784 -60.333
rradius 19.9944
rwrist 53.0145
rhand 7.42099 -25.7983
rfingers 7.12502
rthumb 32.6763 -52.8663
lclavicle -1.98785e-016 -2.78299e-014
lhumerus -48.8946 26.2365 64.3796
lradius 17.7693
lwrist -29.7774
lhand -18.3563 -12.4272
lfingers 7.12502
lthumb 7.92643 17.4041
rfemur -4.84005 27.2767 25.6974
rtibia 1.07446
rfoot -11.1152 -24.9157
rtoes 6.13954
lfemur 6.33862 -48.0784 -12.4065
ltibia -4.76814
lfoot -28.0708 55.9115
ltoes 14.2104
6
root 0.611561 17.4476 9.3065 11.2569 -2.61067 -9.50468
lowerback 0.0119411 1.34456 6.50602
upperback -9.3648 2.27937 1.41511
thorax -9.78125 0.651477 -2.30632
lowerneck -7.3435 -11.6864 -7.94139
upperneck 17.3839 -17.0589 10.3026
head 8.16772 -7.87308 2.89416
rclavicle 5.76476e-015 -4.8901e-014
rhumerus -48.9515 -33.645 -60.0312
rradius 19.5198
rwrist 52.9786
rhand 7.27581 -25.8007
rfingers 7.12502
rthumb 32.5382 -52.8972
lclavicle 5.76476e-015 -4.8901e-014
lhumerus -48.7909 24.269 66.0829
lradius 18.5164
lwrist -27.6378
lhand -18.0987 -10.6905
lfingers 7.12502
lthumb 8.17509 19.1314
rfemur -6.00595 26.5141 25.1468
rtibia 1.33317
rfoot -10.4302 -24.6026
rtoes 1.94707
lfemur 4.99827 -48.3804 -11.5098
ltibia -4.75108
lfoot -28.2882 56.0419
ltoes 14.4433
7
root 0.608181 17.451 9.31741 11.4412 -2.59689 -9.32277
lowerback -0.363369 1.36247 6.27084
upperback -9.37011 2.25514 1.3657
thorax -9.56666 0.663684 -2.21625
lowerneck -7.45304 -11.7066 -7.9351
upperneck 17.4561 -17.0886 10.2917
head 8.2128 -7.88071 2.87791
rclavicle -2.127e-014 -1.07344e-014
rhumerus -48.8638 -33.8085 -59.9343
rradius 19.2403
rwrist 53.044
rhand 7.10062 -25.8002
rfingers 7.12502
rthumb 32.3715 -52.9309
lclavicle -2.127e-014 -1.07344e-014
lhumerus -48.729 23.9593 66.2597
lradius 18.4801
lwrist -27.1487
lhand -18.3106 -12.2242
lfingers 7.12502
lthumb 7.97054 17.6055
rfemur -6.33273 26.1467 24.8469
rtibia 1.55111
rfoot -10.4108 -24.3361
rtoes -0.0560155
lfemur 4.75609 -48.6073 -11.5476
ltibia -4.73094
lfoot -28.4364 56.2294
ltoes 14.4455
8
root 0.608477 17.4502 9.31816 11.4632 -2.58835 -9.3701
lowerback -0.386079 1.33259 6.31541
upperback -9.38855 2.22021 1.42045
thorax -9.57855 0.644836 -2.17956
lowerneck -7.44705 -11.6609 -7.98767
upperneck 17.5195 -17.0078 10.2123
head 8.22188 -7.85084 2.87052
rclavicle -2.25621e-014 1.82882e-014
rhumerus -48.8169 -33.7123 -59.9516
rradius 19.2132
rwrist 53.0201
rhand 7.04 -25.8529
rfingers 7.12502
rthumb 32.3138 -52.9954
lclavicle -2.25621e-014 1.82882e-014
lhumerus -48.6555 23.5066 66.873
lradius 18.8878
lwrist -26.6311
lhand -17.8176 -10.5745
lfingers 7.12502
lthumb 8.44635 19.2366
rfemur -6.37834 26.1113 24.8891
rtibia 1.59853
rfoot -10.468 -24.2963
rtoes 0.215196
lfemur 4.71998 -48.5908 -11.4614
ltibia -4.73326
lfoot -28.441 56.2211
ltoes 14.3904
9
root 0.608736 17.4499 9.3183 11.496 -2.57566 -9.42534
lowerback -0.41798 1.27289 6.34369
upperback -9.41942 2.14749 1.51995
thorax -9.60428 0.610272 -2.08322
lowerneck -7.41073 -11.5819 -8.11863
upperneck 17.6101 -16.8758 10.1402
head 8.2372 -7.80161 2.8852
rclavicle -6.95746e-015 -1.35174e-014
rhumerus -48.693 -33.45 -60.0562
rradius 19.1946
rwrist 52.9831
rhand 7.01477 -25.9151
rfingers 7.12502
rthumb 32.2898 -53.0625
lclavicle -6.95746e-015 -1.35174e-014
lhumerus -48.7857 23.5562 66.993
lradius 19.056
lwrist -26.4923
lhand -17.5178 -9.99595
lfingers 7.12502
lthumb 8.73565 19.8033
rfemur -6.42106 26.1243 24.9282
rtibia 1.60254
rfoot -10.5526 -24.2698
rtoes 0.70229
lfemur 4.66295 -48.6388 -11.3597
ltibia -4.70043
lfoot -28.7013 56.19
ltoes 14.7474
10
root 0.608813 17.4494 9.3193 11.5091 -2.56524 -9.42813
lowerback -0.457293 1.18325 6.30416
upperback -9.44772 2.03195 1.64238
thorax -9.62771 0.561477 -1.9215
lowerneck -7.32412 -11.4863 -8.3278
upperneck 17.6726 -16.7149 10.0955
head 8.24058 -7.74435 2.92732
rclavicle -1.40143e-014 -2.42517e-014
rhumerus -48.5199 -33.0794 -60.1967
rradius 19.1687
rwrist 52.9793
rhand 6.961 -25.8699
rfingers 7.12502
rthumb 32.2386 -53.0277
lclavicle -1.40143e-014 -2.42517e-014
lhumerus -49.0335 23.9346 66.8154
lradius 19.052
lwrist -26.536
lhand -17.4324 -9.9605
lfingers 7.12502
lthumb 8.8181 19.8353
rfemur -6.4216 26.1036 24.9283
rtibia 1.58484
rfoot -10.5187 -24.2516
rtoes 1.21125
lfemur 4.65426 -48.6827 -11.3548
ltibia -4.69172
lfoot -28.7003 56.2154
ltoes 14.8193
11
root 0.608916 17.4493 9.32025 11.5002 -2.55721 -9.41784
lowerback -0.649042 0.793043 6.10845
upperback -9.7996 1.53584 2.13728
thorax -9.96832 0.343343 -1.24331
lowerneck -5.52622 -10.9071 -9.4545
upperneck 17.3472 -15.8834 10.295
head 7.83817 -7.4874 3.37705
rclavicle 3.926e-015 -3.69739e-014
rhumerus -48.5075 -31.2573 -60.3667
rradius 19.1495
rwrist 52.7796
rhand 6.99229 -25.7672
rfingers 7.12502
rthumb 32.2684 -52.9189
lclavicle 3.926e-015 -3.69739e-014
lhumerus -50.7765 24.7252 66.1762
lradius 19.3314
lwrist -26.3176
lhand -17.4438 -9.95762
lfingers 7.12502
lthumb 8.80705 19.8386
rfemur -6.39707 26.1167 24.9277
rtibia 1.57966
rfoot -10.499 -24.2709
rtoes 1.71481
lfemur 4.67406 -48.6583 -11.3746
ltibia -4.71461
lfoot -28.6318 56.2006
ltoes 14.6926
12
root 0.60938 17.4495 9.32078 11.4899 -2.56276 -9.41945
lowerback -0.645772 0.786055 6.11522
upperback -9.78695 1.52668 2.14266
thorax -9.95665 0.339025 -1.24074
lowerneck -5.56552 -10.8923 -9.45326
upperneck 17.3883 -15.86 10.2735
head 7.85427 -7.47542 3.37022
rclavicle -1.0635e-014 2.26615e-014
rhumerus -48.5414 -31.4329 -60.2416
rradius 19.1564
rwrist 52.9493
rhand 7.06367 -25.6992
rfingers 7.12502
rthumb 32.3363 -52.8371
lclavicle -1.0635e-014 2.26615e-014
lhumerus -50.7698 24.7527 66.1646
lradius 19.3331
lwrist -26.3273
lhand -17.5058 -10.0012
lfingers 7.12502
lthumb 8.74729 19.7976
rfemur -6.38063 26.0809 24.9398
rtibia 1.57555
rfoot -10.4549 -24.246
rtoes 1.47054
lfemur 4.69578 -48.6562 -11.3932
ltibia -4.71268
lfoot -28.6931 56.1914
ltoes 14.6445
13
root 0.609393 17.4493 9.32051 11.5064 -2.56719 -9.43176
lowerback -0.643047 0.782929 6.12142
upperback -9.7994 1.5246 2.15427
thorax -9.97294 0.337442 -1.23156
lowerneck -5.59644 -10.8782 -9.49186
upperneck 17.4504 -15.844 10.2902
head 7.88319 -7.46635 3.38095
rclavicle 9.74045e-015 1.51076e-014
rhumerus -48.61 -31.5992 -60.0774
rradius 19.1304
rwrist 53.1897
rhand 7.0539 -25.6391
rfingers 7.12502
rthumb 32.327 -52.7789
lclavicle 9.74045e-015 1.51076e-014
lhumerus -50.7882 24.7851 66.1417
lradius 19.333
lwrist -26.3553
lhand -17.5668 -10.0497
lfingers 7.12502
lthumb 8.68841 19.7515
rfemur -6.41088 26.0444 24.9402
rtibia 1.56649
rfoot -10.4304 -24.1989
rtoes 1.33823
lfemur 4.67653 -48.6858 -11.3678
ltibia -4.71049
lfoot -28.6869 56.2404
ltoes 14.5737
14
root 0.609025 17.449 9.32048 11.518 -2.55287 -9.42994
lowerback -0.633936 0.775917 6.12185
upperback -9.82053 1.51711 2.15378
thorax -10.003 0.33259 -1.2317
lowerneck -5.59801 -10.8704 -9.55259
upperneck 17.5062 -15.8447 10.3496
head 7.91221 -7.46466 3.40838
rclavicle -1.81391e-014 5.56597e-015
rhumerus -48.6277 -31.5917 -60.0803
rradius 19.1213
rwrist 53.2114
rhand 7.05539 -25.6212
rfingers 7.12502
rthumb 32.3284 -52.7608
lclavicle -1.81391e-014 5.56597e-015
lhumerus -50.8098 24.779 66.1269
lradius 19.3318
lwrist -26.333
lhand -17.6035 -10.048
lfingers 7.12502
lthumb 8.65297 19.7546
rfemur -6.4238 26.1024 24.9291
rtibia 1.55485
rfoot -10.4686 -24.2483
rtoes 1.50666
lfemur 4.67574 -48.7519 -11.3678
ltibia -4.71388
lfoot -28.8411 56.2655
ltoes 14.7201
15
root 0.608973 17.4487 9.32158 11.5054 -2.53483 -9.40138
lowerback -0.637577 0.768433 6.09542
upperback -9.82226 1.5047 2.14345
thorax -10.0033 0.328187 -1.22709
lowerneck -5.56439 -10.8673 -9.57563
upperneck 17.4855 -15.8461 10.3893
head 7.90484 -7.46552 3.42656
rclavicle 1.60022e-014 -3.33958e-014
rhumerus -48.5759 -31.4687 -60.2231
rradius 19.1474
rwrist 53.037
rhand 7.09468 -25.6553
rfingers 7.12502
rthumb 32.3658 -52.7872
lclavicle 1.60022e-014 -3.33958e-014
lhumerus -50.817 24.7493 66.1288
lradius 19.3413
lwrist -26.3239
lhand -17.5897 -10.0637
lfingers 7.12502
lthumb 8.66629 19.7384
rfemur -6.38884 26.1909 24.9101
rtibia 1.54486
rfoot -10.499 -24.3626
rtoes 1.70801
lfemur 4.71176 -48.8051 -11.4296
ltibia -4.71141
lfoot -29.022 56.2433
ltoes 14.9751
